<svg width="40" height="40" viewBox="0 0 40 40" fill="none" xmlns="http://www.w3.org/2000/svg">
<path d="M28.3333 13.3333V3.33325H11.6667V13.3333H5V36.6666H35V13.3333H28.3333ZM16.3333 6.66659H23.6667C24.4033 6.66659 25 7.26325 25 7.99992V13.3333H15V7.99992C15 7.26325 15.5967 6.66659 16.3333 6.66659ZM22.9017 18.4516C23.085 20.2949 21.5467 21.8349 19.7017 21.6516C18.3367 21.5166 17.2333 20.4116 17.0983 19.0483C16.915 17.2049 18.4533 15.6649 20.2983 15.8483C21.6633 15.9833 22.7667 17.0883 22.9017 18.4516ZM31.6667 33.3333H8.33333V20.0866C8.33333 18.2483 9.785 16.6899 11.6233 16.6666C12.56 16.6549 13.41 17.0299 14.0233 17.6433C14.6267 18.2466 15 19.0799 15 19.9999V23.3333H25V20.0866C25 18.2483 26.4517 16.6899 28.29 16.6666C29.2267 16.6549 30.0767 17.0299 30.69 17.6433C31.2933 18.2466 31.6667 19.0799 31.6667 19.9999V33.3333Z" fill="black"/>
</svg>
